<?xml version="1.0" encoding="UTF-8" standalone="no"?>
<!-- Created with Inkscape (http://www.inkscape.org/) -->

<svg
   xmlns:dc="http://purl.org/dc/elements/1.1/"
   xmlns:cc="http://creativecommons.org/ns#"
   xmlns:rdf="http://www.w3.org/1999/02/22-rdf-syntax-ns#"
   xmlns:svg="http://www.w3.org/2000/svg"
   xmlns="http://www.w3.org/2000/svg"
   xmlns:sodipodi="http://sodipodi.sourceforge.net/DTD/sodipodi-0.dtd"
   xmlns:inkscape="http://www.inkscape.org/namespaces/inkscape"
   width="301mm"
   height="76.000572mm"
   viewBox="0 0 301 76.000573"
   version="1.1"
   id="svg8"
   inkscape:version="0.92.4 (5da689c313, 2019-01-14)"
   sodipodi:docname="logo.svg">
  <defs
     id="defs2" />
  <sodipodi:namedview
     id="base"
     pagecolor="#ffffff"
     bordercolor="#666666"
     borderopacity="1.0"
     inkscape:pageopacity="0.0"
     inkscape:pageshadow="2"
     inkscape:zoom="0.70000001"
     inkscape:cx="1035.4477"
     inkscape:cy="378.12697"
     inkscape:document-units="mm"
     inkscape:current-layer="layer1"
     showgrid="false"
     inkscape:window-width="1920"
     inkscape:window-height="1001"
     inkscape:window-x="-9"
     inkscape:window-y="41"
     inkscape:window-maximized="1"
     fit-margin-top="0"
     fit-margin-left="0"
     fit-margin-right="0"
     fit-margin-bottom="0" />
  <metadata
     id="metadata5">
    <rdf:RDF>
      <cc:Work
         rdf:about="">
        <dc:format>image/svg+xml</dc:format>
        <dc:type
           rdf:resource="http://purl.org/dc/dcmitype/StillImage" />
        <dc:title />
      </cc:Work>
    </rdf:RDF>
  </metadata>
  <g
     inkscape:label="Layer 1"
     inkscape:groupmode="layer"
     id="layer1"
     transform="translate(9.9923493,-221.49943)">
    <path
       style="fill:none;stroke:#ffffff;stroke-width:1;stroke-miterlimit:4;stroke-dasharray:none;stroke-opacity:1"
       d="M 45.507463,256.99986 A 19.999999,19.999999 0 0 0 25.507651,277.0002 19.999999,19.999999 0 0 0 45.507463,297 19.999999,19.999999 0 0 0 55.507371,294.2994 V 297 h 9.999906 v -19.9998 -20.00034 h -9.999906 v 2.70837 a 19.999999,19.999999 0 0 0 -9.999908,-2.70837 z m 0,10.00044 a 10,10 0 0 1 9.999908,9.9999 10,10 0 0 1 -9.999908,9.9999 10,10 0 0 1 -9.999906,-9.9999 10,10 0 0 1 9.999906,-9.9999 z"
       id="path5272"
       inkscape:connector-curvature="0" />
    <rect
       style="fill:none;stroke:#ffffff;stroke-width:1;stroke-miterlimit:4;stroke-dasharray:none;stroke-opacity:1"
       id="rect5281"
       width="10"
       height="60"
       x="70.507652"
       y="237" />
    <path
       style="fill:none;stroke:#ffffff;stroke-width:1;stroke-miterlimit:4;stroke-dasharray:none;stroke-opacity:1"
       d="m 100.50765,257 c -8.284239,-1.1e-4 -15.000009,5.51028 -14.999999,12.30773 7e-5,6.7974 6.31492,9.9691 14.699329,11.30534 4.64318,0.735 5.30068,2.37987 5.30067,4.0792 1.8e-4,1.69938 -0.85783,4.30772 -5,4.30773 -4.142039,-2e-5 -4.999999,-2.60827 -4.999999,-4.3076 h -9.99961 c 8e-5,6.79727 6.71558,12.30753 14.999609,12.3076 8.28424,1.1e-4 15.00002,-5.51028 15,-12.30773 -7e-5,-6.7974 -6.61559,-10.37001 -15,-11.57261 -4.192159,-0.93546 -5.000009,-2.1126 -4.999999,-3.81193 -1.8e-4,-1.69938 0.85784,-4.30771 4.999999,-4.30773 4.14205,10e-6 5,2.60827 5,4.3076 h 9.99961 c -7e-5,-6.79727 -6.71558,-12.30753 -14.99961,-12.3076 z"
       id="path5376"
       inkscape:connector-curvature="0"
       sodipodi:nodetypes="ccccccccccccccc" />
    <rect
       style="fill:none;stroke:#ffffff;stroke-width:1;stroke-miterlimit:4;stroke-dasharray:none;stroke-opacity:1"
       id="rect5281-0"
       width="10"
       height="60"
       x="120.50765"
       y="237" />
    <path
       style="fill:none;stroke:#ffffff;stroke-width:1;stroke-miterlimit:4;stroke-dasharray:none;stroke-opacity:1"
       d="m 155.50745,256.99986 a 20,20 0 0 0 -19.9998,20.00034 20,20 0 0 0 19.9998,19.9998 20,20 0 0 0 19.9998,-19.9998 20,20 0 0 0 -19.9998,-20.00034 z m 0,10.00044 a 10,10 0 0 1 9.9999,9.9999 10,10 0 0 1 -9.9999,9.9999 10,10 0 0 1 -9.9999,-9.9999 10,10 0 0 1 9.9999,-9.9999 z"
       id="path69"
       inkscape:connector-curvature="0" />
    <path
       style="fill:none;stroke:#ffffff;stroke-width:1;stroke-miterlimit:4;stroke-dasharray:none;stroke-opacity:1"
       d="M 200.50746,256.99986 A 19.999999,19.999999 0 0 0 180.50765,277.0002 19.999999,19.999999 0 0 0 200.50746,297 19.999999,19.999999 0 0 0 214.6389,291.13474 l -7.06624,-7.06625 a 10,10 0 0 1 -7.0652,2.93161 10,10 0 0 1 -9.9999,-9.9999 10,10 0 0 1 9.9999,-9.9999 10,10 0 0 1 7.06831,2.9347 l 7.06623,-7.06676 a 19.999999,19.999999 0 0 0 -14.13454,-5.86838 z"
       id="path74"
       inkscape:connector-curvature="0" />
    <path
       style="fill:none;stroke:#ffffff;stroke-width:1;stroke-miterlimit:4;stroke-dasharray:none;stroke-opacity:1"
       d="M 219.64165,237.00005 V 277.00226 297 h 9.99991 v -9.99784 l 9.99732,9.99733 7.07089,5.1e-4 7.07088,-5.1e-4 -7.07088,-7.07088 -12.92583,-12.92582 12.92583,-12.92584 -5.2e-4,-5.2e-4 7.07089,-7.07088 h -7.07037 -7.07141 l -9.9968,9.99681 v -30.00231 z"
       id="rect5281-0-1"
       inkscape:connector-curvature="0" />
    <path
       style="fill:none;stroke:#ffffff;stroke-width:1;stroke-miterlimit:4;stroke-dasharray:none;stroke-opacity:1"
       d="M 235.50765,232 V 242.00013 252 h 5.00019 v -10.00504 a 4.9999803,4.9999825 0 0 1 4.99968,-4.99476 4.9999803,4.9999825 0 0 1 4.99993,4.99993 h 2.5e-4 V 252 h 4.99995 v -9.99987 h -2.7e-4 A 9.9999603,9.9999645 0 0 0 245.50752,232 a 9.9999603,9.9999645 0 0 0 -4.99968,1.35005 V 232 Z"
       id="rect171"
       inkscape:connector-curvature="0" />
    <path
       style="fill:none;stroke:#ffffff;stroke-width:1;stroke-miterlimit:4;stroke-dasharray:none;stroke-opacity:1"
       d="m 268.00753,232 a 9.9999603,9.9999645 0 0 0 -9.87585,8.47801 9.9999603,9.9999645 0 0 0 -0.10413,0.96401 9.9999602,9.9999645 0 0 0 -0.0199,0.55811 9.9999603,9.9999645 0 0 0 0.27,2.26316 9.9999602,9.9999645 0 0 0 0.0553,0.23669 h 0.005 a 9.9999603,9.9999645 0 0 0 9.6694,7.50002 9.9999603,9.9999645 0 0 0 7.06672,-2.9334 l -3.5331,-3.5331 a 4.9999803,4.9999825 0 0 1 -3.53362,1.46657 4.9999803,4.9999825 0 0 1 -4.32298,-2.50009 H 277.677 a 9.9999602,9.9999645 0 0 0 0.33048,-2.49985 9.9999603,9.9999645 0 0 0 -0.26949,-2.26161 9.9999602,9.9999645 0 0 0 -0.0556,-0.23849 h -0.005 A 9.9999603,9.9999645 0 0 0 268.00748,232 Z m 0,5.0002 a 4.9999803,4.9999825 0 0 1 4.32297,2.49983 h -8.6475 a 4.9999803,4.9999825 0 0 1 4.32453,-2.49983 z"
       id="rect211"
       inkscape:connector-curvature="0" />
    <path
       style="fill:none;stroke:#ffffff;stroke-width:1;stroke-miterlimit:4;stroke-dasharray:none;stroke-opacity:1"
       d="m 280.50756,221.9995 v 4.99992 h -4.99991 v 4.99992 h 4.99991 v 9.99881 0.002 c -0.002,2.65282 1.04956,5.19772 2.92254,7.07523 1.87795,1.87587 4.42402,2.92797 7.07755,2.92461 v -5.00069 c -1.32775,0.003 -2.60203,-0.52321 -3.54187,-1.46167 -0.9365,-0.9387 -1.46215,-2.2111 -1.4614,-3.53748 h 0.003 v -10.00011 h 4.995 0.005 v -4.99992 h -5.00016 v -4.99992 z m 9.99493,9.99984 -1.1e-4,7e-4 0.005,-4.99992 1.1e-4,4.99948 z"
       id="rect5281-0-4"
       inkscape:connector-curvature="0"
       sodipodi:nodetypes="ccccccccccccccccccccccccc" />
    <path
       style="fill:none;stroke:#ffffff;stroke-width:1;stroke-miterlimit:4;stroke-dasharray:none;stroke-opacity:1"
       d="M 10.507461,256.99986 A 19.999999,19.999999 0 0 0 -9.4923493,277.0002 19.999999,19.999999 0 0 0 10.507461,297 a 19.999999,19.999999 0 0 0 14.13144,-5.86526 l -7.06624,-7.06625 a 10,10 0 0 1 -7.0652,2.93161 10,10 0 0 1 -9.9999003,-9.9999 10,10 0 0 1 9.9999003,-9.9999 10,10 0 0 1 7.06831,2.9347 l 7.06623,-7.06676 a 19.999999,19.999999 0 0 0 -14.13454,-5.86838 z"
       id="path74-3"
       inkscape:connector-curvature="0" />
  </g>
</svg>
